<?xml version="1.0" encoding="UTF-8"?>
<!DOCTYPE svg PUBLIC "-//W3C//DTD SVG 1.1//EN" "http://www.w3.org/Graphics/SVG/1.1/DTD/svg11.dtd">
<svg xmlns="http://www.w3.org/2000/svg" version="1.1" width="1024px" height="1024px" style="shape-rendering:geometricPrecision; text-rendering:geometricPrecision; image-rendering:optimizeQuality; fill-rule:evenodd; clip-rule:evenodd" xmlns:xlink="http://www.w3.org/1999/xlink">
<g><path style="opacity:0.004" fill="#3d84be" d="M 501.5,192.5 C 502.601,191.402 503.934,191.235 505.5,192C 504.207,192.49 502.873,192.657 501.5,192.5 Z"/></g>
<g><path style="opacity:0.004" fill="#3983be" d="M 506.5,191.5 C 507.833,192.167 507.833,192.167 506.5,191.5 Z"/></g>
<g><path style="opacity:0.004" fill="#3982c0" d="M 508.5,191.5 C 509.833,192.167 509.833,192.167 508.5,191.5 Z"/></g>
<g><path style="opacity:0.004" fill="#3980bc" d="M 512.5,191.5 C 513.833,192.167 513.833,192.167 512.5,191.5 Z"/></g>
<g><path style="opacity:0.004" fill="#4288c2" d="M 516.5,191.5 C 517.833,192.167 517.833,192.167 516.5,191.5 Z"/></g>
<g><path style="opacity:0.008" fill="#3c83bd" d="M 520.5,191.5 C 521.833,192.167 521.833,192.167 520.5,191.5 Z"/></g>
<g><path style="opacity:0.004" fill="#3d83bd" d="M 525.5,191.5 C 526.833,192.167 526.833,192.167 525.5,191.5 Z"/></g>
<g><path style="opacity:0.004" fill="#397fbb" d="M 522.5,192.5 C 523.833,193.167 523.833,193.167 522.5,192.5 Z"/></g>
<g><path style="opacity:0.004" fill="#3d86c0" d="M 525.5,192.5 C 524.833,193.167 524.833,193.167 525.5,192.5 Z"/></g>
<g><path style="opacity:0.004" fill="#3c83bc" d="M 529.5,194.5 C 530.833,195.167 530.833,195.167 529.5,194.5 Z"/></g>
<g><path style="opacity:0.992" fill="#1362ab" d="M 500.5,194.5 C 512.111,193.706 523.445,195.039 534.5,198.5C 535.463,199.363 535.463,200.03 534.5,200.5C 522.509,196.126 510.176,194.626 497.5,196C 498.737,195.768 499.737,195.268 500.5,194.5 Z"/></g>
<g><path style="opacity:0.998" fill="#2880cb" d="M 500.5,194.5 C 499.737,195.268 498.737,195.768 497.5,196C 510.176,194.626 522.509,196.126 534.5,200.5C 535.463,200.03 535.463,199.363 534.5,198.5C 540.195,200.008 544.862,203.008 548.5,207.5C 550.833,210.5 553.5,213.167 556.5,215.5C 556.427,217.027 557.094,218.027 558.5,218.5C 560.924,221.008 562.59,224.008 563.5,227.5C 568.355,241.211 568.688,255.044 564.5,269C 564.684,270.376 565.351,271.209 566.5,271.5C 569.76,272.774 572.76,274.44 575.5,276.5C 575.973,277.906 576.973,278.573 578.5,278.5C 580.5,279.167 582.5,279.833 584.5,280.5C 591.468,285.322 598.801,289.656 606.5,293.5C 609.678,296.258 613.345,298.258 617.5,299.5C 642.471,314.657 667.804,329.323 693.5,343.5C 697.436,341.234 700.769,338.234 703.5,334.5C 705.027,334.573 706.027,333.906 706.5,332.5C 706.5,332.167 706.5,331.833 706.5,331.5C 710.069,329.881 713.736,328.548 717.5,327.5C 721.5,326.833 725.5,326.167 729.5,325.5C 735.892,326.251 742.392,327.251 749,328.5C 750.07,328.472 750.903,328.139 751.5,327.5C 751.833,327.5 752.167,327.5 752.5,327.5C 754.553,327.402 756.22,328.069 757.5,329.5C 759.849,331.341 762.515,332.674 765.5,333.5C 765.973,334.906 766.973,335.573 768.5,335.5C 773.5,338.5 777.5,342.5 780.5,347.5C 780.427,349.027 781.094,350.027 782.5,350.5C 784.25,351.659 785.25,353.326 785.5,355.5C 784.637,354.537 783.97,354.537 783.5,355.5C 790.103,370.135 791.103,385.135 786.5,400.5C 783.092,407.65 779.425,414.65 775.5,421.5C 772.167,424.5 768.833,427.5 765.5,430.5C 759.904,433.627 753.904,435.627 747.5,436.5C 748.263,435.732 749.263,435.232 750.5,435C 748.765,434.349 747.098,434.515 745.5,435.5C 744.172,482.234 744.172,528.234 745.5,573.5C 747.042,574.301 748.708,574.634 750.5,574.5C 770.413,579.413 783.08,591.746 788.5,611.5C 791.167,623.833 791.167,636.167 788.5,648.5C 788.598,650.553 787.931,652.22 786.5,653.5C 784.896,654.287 784.229,655.62 784.5,657.5C 780.813,664.692 775.813,670.859 769.5,676C 765.381,678.726 761.048,680.893 756.5,682.5C 755.167,682.5 753.833,682.5 752.5,682.5C 741.664,685.096 730.831,685.096 720,682.5C 719.5,682.667 719,682.833 718.5,683C 719.416,683.278 720.082,683.778 720.5,684.5C 709.971,682.574 701.304,677.574 694.5,669.5C 694.213,667.879 693.213,666.879 691.5,666.5C 689.089,667.361 687.089,668.694 685.5,670.5C 650.672,691.082 615.672,711.416 580.5,731.5C 578.326,731.75 576.659,732.75 575.5,734.5C 572.738,736.725 569.738,738.725 566.5,740.5C 567.348,742.409 567.682,744.409 567.5,746.5C 567.5,747.167 567.5,747.833 567.5,748.5C 566.79,753.168 565.79,757.835 564.5,762.5C 565.442,768.091 564.442,773.424 561.5,778.5C 561.667,778.833 561.833,779.167 562,779.5C 562.852,778.429 563.685,777.429 564.5,776.5C 559.176,791.824 548.843,802.157 533.5,807.5C 531.035,807.767 528.701,808.434 526.5,809.5C 526.083,808.876 525.416,808.543 524.5,808.5C 521.011,809.22 517.511,809.887 514,810.5C 509.195,809.475 504.362,809.308 499.5,810C 502.036,810.186 504.369,810.686 506.5,811.5C 505.5,811.5 504.5,811.5 503.5,811.5C 501.265,811.795 499.265,811.461 497.5,810.5C 495.485,809.076 493.152,808.41 490.5,808.5C 485.206,805.518 479.873,802.518 474.5,799.5C 469.455,796.729 465.789,792.729 463.5,787.5C 463.573,785.973 462.906,784.973 461.5,784.5C 460.662,784.158 460.328,783.492 460.5,782.5C 458.63,777.558 456.964,772.558 455.5,767.5C 456.624,763.996 456.624,760.33 455.5,756.5C 456.39,750.77 457.223,745.103 458,739.5C 457.243,741.315 456.41,742.981 455.5,744.5C 455.785,742.712 455.452,741.045 454.5,739.5C 451.423,737.295 448.09,735.628 444.5,734.5C 441.506,732 438.173,730 434.5,728.5C 433.101,727.11 431.434,726.11 429.5,725.5C 428.486,724.326 427.153,723.66 425.5,723.5C 417.836,718.332 409.836,713.665 401.5,709.5C 392.334,703.08 382.668,697.413 372.5,692.5C 371.486,691.326 370.153,690.66 368.5,690.5C 356.757,682.617 344.59,675.283 332,668.5C 327.177,671.985 322.344,675.485 317.5,679C 315.593,680.122 313.593,680.955 311.5,681.5C 309.5,681.833 307.5,682.167 305.5,682.5C 297.396,683.766 289.396,684.766 281.5,685.5C 280.167,685.5 278.833,685.5 277.5,685.5C 273.085,685.139 269.085,683.806 265.5,681.5C 263.819,679.992 261.819,678.992 259.5,678.5C 253.919,675.587 249.253,671.587 245.5,666.5C 244.241,662.975 242.241,659.975 239.5,657.5C 239.771,655.62 239.104,654.287 237.5,653.5C 236.833,652.833 236.167,652.167 235.5,651.5C 235.167,649.5 234.833,647.5 234.5,645.5C 234.5,644.833 234.5,644.167 234.5,643.5C 235.363,644.463 236.03,644.463 236.5,643.5C 233.021,629.685 234.354,616.351 240.5,603.5C 240.03,602.537 239.363,602.537 238.5,603.5C 239.589,598.978 241.922,595.311 245.5,592.5C 248.833,589.833 251.833,586.833 254.5,583.5C 257.161,580.498 260.495,578.498 264.5,577.5C 268.5,576.5 272.5,575.5 276.5,574.5C 277.162,528.155 276.495,482.155 274.5,436.5C 271.848,436.59 269.515,435.924 267.5,434.5C 270.176,435.008 272.843,435.175 275.5,435C 268.467,432.802 261.801,430.135 255.5,427C 256.381,427.708 257.047,428.542 257.5,429.5C 255.596,429.262 254.262,428.262 253.5,426.5C 251.167,423.5 248.5,420.833 245.5,418.5C 244.5,417.833 243.5,417.167 242.5,416.5C 241.559,414.95 240.893,413.284 240.5,411.5C 234.269,398.227 231.935,384.227 233.5,369.5C 233.232,367.901 233.566,366.568 234.5,365.5C 235.752,357.715 239.085,351.048 244.5,345.5C 247.833,342.833 250.833,339.833 253.5,336.5C 258.441,332.195 264.108,329.195 270.5,327.5C 271.167,327.5 271.833,327.5 272.5,327.5C 271.737,328.268 270.737,328.768 269.5,329C 270.167,329.167 270.833,329.333 271.5,329.5C 279.306,327.191 287.306,326.191 295.5,326.5C 298.833,326.833 302.167,327.167 305.5,327.5C 306.78,328.931 308.447,329.598 310.5,329.5C 312.849,331.341 315.515,332.674 318.5,333.5C 320.754,334.124 322.421,335.457 323.5,337.5C 325.502,340.334 328.002,342.667 331,344.5C 332.667,343.267 334.167,341.933 335.5,340.5C 338.331,339.921 340.664,338.588 342.5,336.5C 344.336,334.412 346.669,333.079 349.5,332.5C 351.674,332.25 353.341,331.25 354.5,329.5C 356.674,329.25 358.341,328.25 359.5,326.5C 373.166,317.998 387.166,309.998 401.5,302.5C 403.674,302.25 405.341,301.25 406.5,299.5C 410.5,296.833 414.5,294.167 418.5,291.5C 423.833,288.833 429.167,286.167 434.5,283.5C 436.674,283.25 438.341,282.25 439.5,280.5C 442.331,279.921 444.664,278.588 446.5,276.5C 448.336,274.412 450.669,273.079 453.5,272.5C 457.068,272.241 458.401,270.241 457.5,266.5C 456.942,257.015 456.276,247.682 455.5,238.5C 455.5,237.833 455.5,237.167 455.5,236.5C 455.595,234.214 456.262,232.214 457.5,230.5C 459.293,228.574 460.293,226.241 460.5,223.5C 461.723,219.951 463.723,216.951 466.5,214.5C 469.833,211.833 472.833,208.833 475.5,205.5C 482.456,198.95 490.789,195.283 500.5,194.5 Z M 482.5,302.5 C 483.911,304.539 485.911,305.539 488.5,305.5C 490.102,307.074 492.102,307.741 494.5,307.5C 495.568,308.434 496.901,308.768 498.5,308.5C 498.816,323.578 498.483,338.578 497.5,353.5C 494.008,354.41 491.008,356.076 488.5,358.5C 486.326,358.75 484.659,359.75 483.5,361.5C 481.326,361.75 479.659,362.75 478.5,364.5C 475.5,365.833 472.5,367.167 469.5,368.5C 463.666,372.921 457.332,376.588 450.5,379.5C 447.833,381.5 445.167,383.5 442.5,385.5C 440.326,385.75 438.659,386.75 437.5,388.5C 431.835,390.997 426.502,393.997 421.5,397.5C 419.973,397.427 418.973,398.094 418.5,399.5C 417.167,399.833 415.833,400.167 414.5,400.5C 414.5,400.833 414.5,401.167 414.5,401.5C 412.973,401.427 411.973,402.094 411.5,403.5C 406.976,405.043 402.976,407.377 399.5,410.5C 397.326,410.75 395.659,411.75 394.5,413.5C 391.008,414.41 388.008,416.076 385.5,418.5C 383.83,418.751 382.33,419.418 381,420.5C 379.007,419.086 376.84,418.086 374.5,417.5C 374.158,416.662 373.492,416.328 372.5,416.5C 372.027,415.094 371.027,414.427 369.5,414.5C 368.306,413.728 367.306,412.728 366.5,411.5C 364.181,411.008 362.181,410.008 360.5,408.5C 354.675,405.755 349.008,402.755 343.5,399.5C 345.593,390.768 345.926,382.102 344.5,373.5C 344.162,370.989 344.162,368.655 344.5,366.5C 353.696,361.406 362.696,356.072 371.5,350.5C 374.331,349.921 376.664,348.588 378.5,346.5C 379.833,346.167 381.167,345.833 382.5,345.5C 394.832,337.665 407.498,330.332 420.5,323.5C 427.905,318.774 435.572,314.441 443.5,310.5C 451.98,304.435 460.98,299.101 470.5,294.5C 474.213,297.683 478.213,300.35 482.5,302.5 Z M 562.5,300.5 C 589.833,315.833 617.167,331.167 644.5,346.5C 645.287,348.104 646.62,348.771 648.5,348.5C 651.167,350.5 653.833,352.5 656.5,354.5C 664.167,358.5 671.833,362.5 679.5,366.5C 679.037,369.482 678.704,372.482 678.5,375.5C 676.912,383.074 677.579,390.574 680.5,398C 678.907,398.949 677.574,400.115 676.5,401.5C 673.008,402.41 670.008,404.076 667.5,406.5C 665.973,406.427 664.973,407.094 664.5,408.5C 659.5,410.664 654.833,413.331 650.5,416.5C 647.487,418.5 644.154,419.5 640.5,419.5C 630.334,412.916 620,406.582 609.5,400.5C 606.489,399.331 603.822,397.664 601.5,395.5C 586.167,387.167 570.833,378.833 555.5,370.5C 553.664,368.412 551.331,367.079 548.5,366.5C 541.328,361.411 533.661,357.077 525.5,353.5C 525.217,352.711 524.717,352.044 524,351.5C 523.5,337.171 523.333,322.837 523.5,308.5C 527.049,308.561 530.382,307.727 533.5,306C 540.103,302.786 546.269,298.953 552,294.5C 555.954,295.888 559.454,297.888 562.5,300.5 Z M 539.5,389.5 C 543.507,393.174 548.173,395.841 553.5,397.5C 556.167,399.5 558.833,401.5 561.5,403.5C 560.957,403.56 560.624,403.893 560.5,404.5C 561.243,405.182 561.909,405.849 562.5,406.5C 563.338,406.158 563.672,405.492 563.5,404.5C 569.668,407.08 575.335,410.414 580.5,414.5C 584.836,416.332 588.836,418.665 592.5,421.5C 600.54,425.375 608.207,429.875 615.5,435C 615.164,436.03 614.497,436.53 613.5,436.5C 612.833,437.167 612.167,437.833 611.5,438.5C 609.973,438.427 608.973,439.094 608.5,440.5C 607.508,440.328 606.842,440.662 606.5,441.5C 604.326,441.75 602.659,442.75 601.5,444.5C 596.5,446.664 591.833,449.331 587.5,452.5C 584.669,453.079 582.336,454.412 580.5,456.5C 574.325,460.088 567.991,463.422 561.5,466.5C 556.5,469.833 551.5,473.167 546.5,476.5C 544.973,476.427 543.973,477.094 543.5,478.5C 541.326,478.75 539.659,479.75 538.5,481.5C 535.669,482.079 533.336,483.412 531.5,485.5C 529.326,485.75 527.659,486.75 526.5,488.5C 525.833,488.5 525.167,488.5 524.5,488.5C 521.833,490.5 519.167,492.5 516.5,494.5C 514.5,495.167 512.5,495.833 510.5,496.5C 494.167,486.5 477.833,476.5 461.5,466.5C 457.164,464.668 453.164,462.335 449.5,459.5C 444.167,456.833 438.833,454.167 433.5,451.5C 429.836,448.665 425.836,446.332 421.5,444.5C 417.063,441.441 412.397,438.608 407.5,436C 413.406,431.909 419.406,428.076 425.5,424.5C 427.027,424.573 428.027,423.906 428.5,422.5C 442.667,415.253 456.334,407.253 469.5,398.5C 483.374,391.592 496.708,383.925 509.5,375.5C 510.583,375.461 511.583,375.127 512.5,374.5C 521.393,379.778 530.393,384.778 539.5,389.5 Z M 338.5,425.5 C 341.494,428 344.827,430 348.5,431.5C 348.842,432.338 349.508,432.672 350.5,432.5C 350.859,434.485 351.692,435.151 353,434.5C 353.995,435.066 354.828,435.733 355.5,436.5C 356.167,436.5 356.833,436.5 357.5,436.5C 360.008,438.924 363.008,440.59 366.5,441.5C 366.783,442.289 367.283,442.956 368,443.5C 368.5,485.832 368.667,528.165 368.5,570.5C 367.833,570.5 367.167,570.5 366.5,570.5C 365.694,571.728 364.694,572.728 363.5,573.5C 361.326,573.75 359.659,574.75 358.5,576.5C 355.008,577.41 352.008,579.076 349.5,581.5C 347.973,581.427 346.973,582.094 346.5,583.5C 345.167,583.833 343.833,584.167 342.5,584.5C 341.306,585.272 340.306,586.272 339.5,587.5C 338.508,587.328 337.842,587.662 337.5,588.5C 335.046,589.227 332.713,590.227 330.5,591.5C 328.1,588.097 325.1,585.43 321.5,583.5C 320.738,581.738 319.404,580.738 317.5,580.5C 315.421,578.127 312.754,576.794 309.5,576.5C 308.22,575.069 306.553,574.402 304.5,574.5C 303.432,573.566 302.099,573.232 300.5,573.5C 300.511,528.126 300.511,482.959 300.5,438C 301.416,437.722 302.082,437.222 302.5,436.5C 313.599,434.534 323.099,429.534 331,421.5C 333.185,423.54 335.685,424.874 338.5,425.5 Z M 697.5,426.5 C 699.027,426.427 700.027,427.094 700.5,428.5C 702.05,429.441 703.716,430.107 705.5,430.5C 707.579,432.873 710.246,434.206 713.5,434.5C 715.838,436.04 718.505,436.706 721.5,436.5C 721.5,482.167 721.5,527.833 721.5,573.5C 720.209,573.263 719.209,573.596 718.5,574.5C 715.779,574.963 713.112,575.629 710.5,576.5C 709.833,577.167 709.167,577.833 708.5,578.5C 705.802,578.845 703.802,580.178 702.5,582.5C 698.562,585.098 694.895,588.098 691.5,591.5C 691.167,590.833 690.833,590.167 690.5,589.5C 678.5,583.167 666.5,576.833 654.5,570.5C 654.167,527.828 654.5,485.161 655.5,442.5C 656.522,442.145 657.189,441.478 657.5,440.5C 668.833,434.5 680.167,428.5 691.5,422.5C 691.897,421.475 692.563,421.308 693.5,422C 695.041,423.371 696.375,424.871 697.5,426.5 Z M 397.5,458.5 C 397.842,459.338 398.508,459.672 399.5,459.5C 399.973,460.906 400.973,461.573 402.5,461.5C 404.657,463.412 406.991,465.079 409.5,466.5C 410.167,466.5 410.833,466.5 411.5,466.5C 411.833,467.167 412.167,467.833 412.5,468.5C 413.167,468.5 413.833,468.5 414.5,468.5C 414.842,469.338 415.508,469.672 416.5,469.5C 427.833,476.5 439.167,483.5 450.5,490.5C 452.687,491.758 455.02,492.758 457.5,493.5C 457.842,494.338 458.508,494.672 459.5,494.5C 459.973,495.906 460.973,496.573 462.5,496.5C 463.306,497.728 464.306,498.728 465.5,499.5C 466.833,499.833 468.167,500.167 469.5,500.5C 469.842,501.338 470.508,501.672 471.5,501.5C 472.659,503.25 474.326,504.25 476.5,504.5C 479.167,506.5 481.833,508.5 484.5,510.5C 486.153,510.66 487.486,511.326 488.5,512.5C 490.687,513.758 493.02,514.758 495.5,515.5C 495.973,516.906 496.973,517.573 498.5,517.5C 498.667,555.835 498.5,594.168 498,632.5C 496.89,630.963 495.39,630.297 493.5,630.5C 493.027,629.094 492.027,628.427 490.5,628.5C 489.306,627.728 488.306,626.728 487.5,625.5C 486.167,625.167 484.833,624.833 483.5,624.5C 483.027,623.094 482.027,622.427 480.5,622.5C 473.996,617.745 466.996,613.745 459.5,610.5C 457.664,608.412 455.331,607.079 452.5,606.5C 452.027,605.094 451.027,604.427 449.5,604.5C 448.713,602.896 447.38,602.229 445.5,602.5C 445.027,601.094 444.027,600.427 442.5,600.5C 438.167,597.331 433.5,594.664 428.5,592.5C 428.027,591.094 427.027,590.427 425.5,590.5C 415.666,583.746 405.333,577.746 394.5,572.5C 393.813,561.836 393.147,550.836 392.5,539.5C 392.738,516.571 392.738,492.738 392.5,468C 392.667,464.167 392.833,460.333 393,456.5C 394.33,457.582 395.83,458.249 397.5,458.5 Z M 629.5,571.5 C 628.167,571.833 626.833,572.167 625.5,572.5C 622.833,574.5 620.167,576.5 617.5,578.5C 615.326,578.75 613.659,579.75 612.5,581.5C 608.684,582.909 605.017,584.576 601.5,586.5C 598.833,588.5 596.167,590.5 593.5,592.5C 591.326,592.75 589.659,593.75 588.5,595.5C 581.004,598.745 574.004,602.745 567.5,607.5C 565.973,607.427 564.973,608.094 564.5,609.5C 556.64,613.044 549.307,617.378 542.5,622.5C 540.326,622.75 538.659,623.75 537.5,625.5C 535.326,625.75 533.659,626.75 532.5,628.5C 531.508,628.328 530.842,628.662 530.5,629.5C 528.16,630.086 525.993,631.086 524,632.5C 523.5,594.168 523.333,555.835 523.5,517.5C 542.333,507.587 560.666,496.921 578.5,485.5C 579.833,485.167 581.167,484.833 582.5,484.5C 582.833,483.833 583.167,483.167 583.5,482.5C 592.167,477.833 600.833,473.167 609.5,468.5C 610.899,467.11 612.566,466.11 614.5,465.5C 617.833,463.167 621.167,460.833 624.5,458.5C 626.17,458.249 627.67,457.582 629,456.5C 629.5,494.832 629.667,533.165 629.5,571.5 Z M 652.5,597.5 C 653.659,599.25 655.326,600.25 657.5,600.5C 664.775,605.478 672.441,609.978 680.5,614C 679.134,616.997 678.467,620.164 678.5,623.5C 677.837,625.473 677.504,627.639 677.5,630C 677.379,633.782 678.046,637.282 679.5,640.5C 679.5,640.833 679.5,641.167 679.5,641.5C 679.762,642.978 679.429,644.311 678.5,645.5C 676.739,646.035 675.406,647.035 674.5,648.5C 672.326,648.75 670.659,649.75 669.5,651.5C 668.508,651.328 667.842,651.662 667.5,652.5C 664.669,653.079 662.336,654.412 660.5,656.5C 658.326,656.75 656.659,657.75 655.5,659.5C 653.326,659.75 651.659,660.75 650.5,662.5C 643.668,665.412 637.334,669.079 631.5,673.5C 630.167,673.833 628.833,674.167 627.5,674.5C 627.167,675.167 626.833,675.833 626.5,676.5C 624.973,676.427 623.973,677.094 623.5,678.5C 617.835,680.997 612.502,683.997 607.5,687.5C 605.973,687.427 604.973,688.094 604.5,689.5C 602.326,689.75 600.659,690.75 599.5,692.5C 597.326,692.75 595.659,693.75 594.5,695.5C 593.167,695.833 591.833,696.167 590.5,696.5C 584.663,699.918 578.996,703.584 573.5,707.5C 572.167,707.833 570.833,708.167 569.5,708.5C 569.167,709.167 568.833,709.833 568.5,710.5C 566.326,710.75 564.659,711.75 563.5,713.5C 560.833,714.5 558.167,715.5 555.5,716.5C 555.167,715.167 554.833,715.167 554.5,716.5C 552.5,714.833 550.5,713.167 548.5,711.5C 547.415,709.413 545.749,708.08 543.5,707.5C 540.948,705.057 537.948,703.39 534.5,702.5C 533.365,700.787 531.698,700.12 529.5,700.5C 527.786,699.262 525.786,698.595 523.5,698.5C 523.168,686.149 523.501,673.815 524.5,661.5C 547.61,647.711 570.943,634.378 594.5,621.5C 599.328,617.919 604.328,614.585 609.5,611.5C 611.674,611.25 613.341,610.25 614.5,608.5C 624.114,603.39 633.614,598.057 643,592.5C 646.076,594.426 649.242,596.092 652.5,597.5 Z M 392.5,600.5 C 422.667,617.08 452.334,634.413 481.5,652.5C 484.648,653.576 487.648,654.909 490.5,656.5C 490.842,657.338 491.508,657.672 492.5,657.5C 493.306,658.728 494.306,659.728 495.5,660.5C 496.496,660.414 497.329,660.748 498,661.5C 498.167,667.667 498.333,673.833 498.5,680C 498.46,686.739 497.793,693.239 496.5,699.5C 493.084,699.528 490.084,700.528 487.5,702.5C 485.62,702.229 484.287,702.896 483.5,704.5C 481.973,704.427 480.973,705.094 480.5,706.5C 479.833,706.5 479.167,706.5 478.5,706.5C 478.167,707.167 477.833,707.833 477.5,708.5C 474.101,710.388 471.101,712.888 468.5,716C 466.803,716.384 465.137,716.218 463.5,715.5C 457.666,711.079 451.332,707.412 444.5,704.5C 444.027,703.094 443.027,702.427 441.5,702.5C 434.167,697.833 426.833,693.167 419.5,688.5C 414.167,685.833 408.833,683.167 403.5,680.5C 403.027,679.094 402.027,678.427 400.5,678.5C 385.331,668.745 369.664,659.745 353.5,651.5C 351.664,649.412 349.331,648.079 346.5,647.5C 346.158,646.662 345.492,646.328 344.5,646.5C 343.839,644.444 344.172,642.444 345.5,640.5C 345.825,633.313 345.491,626.313 344.5,619.5C 344.025,616.918 344.692,614.918 346.5,613.5C 357.583,606.281 369.083,599.615 381,593.5C 385.131,595.476 388.964,597.809 392.5,600.5 Z"/></g>
<g><path style="opacity:0.784" fill="#72abdd" d="M 500.5,194.5 C 510.079,193.127 519.746,193.46 529.5,195.5C 531.261,196.313 532.928,197.313 534.5,198.5C 523.445,195.039 512.111,193.706 500.5,194.5 Z"/></g>
<g><path style="opacity:0.008" fill="#3d82b7" d="M 463.5,207.5 C 464.833,208.167 464.833,208.167 463.5,207.5 Z"/></g>
<g><path style="opacity:0.006" fill="#3c82bc" d="M 465.5,207.5 C 466.525,207.897 466.692,208.563 466,209.5C 465.536,208.906 465.369,208.239 465.5,207.5 Z"/></g>
<g><path style="opacity:0.008" fill="#3a80ba" d="M 470.5,208.5 C 469.833,208.5 469.5,208.833 469.5,209.5C 468.957,209.44 468.624,209.107 468.5,208.5C 469.257,207.227 469.923,207.227 470.5,208.5 Z"/></g>
<g><path style="opacity:0.031" fill="#6ba8db" d="M 548.5,207.5 C 552.167,209.167 554.833,211.833 556.5,215.5C 553.5,213.167 550.833,210.5 548.5,207.5 Z"/></g>
<g><path style="opacity:0.004" fill="#3c81bc" d="M 557.5,207.5 C 558.833,208.167 558.833,208.167 557.5,207.5 Z"/></g>
<g><path style="opacity:0.008" fill="#3c82bf" d="M 554.5,208.5 C 555.833,209.167 555.833,209.167 554.5,208.5 Z"/></g>
<g><path style="opacity:1" fill="#609bcd" d="M 475.5,205.5 C 472.833,208.833 469.833,211.833 466.5,214.5C 467.075,212.589 468.075,210.922 469.5,209.5C 470.167,209.5 470.5,209.167 470.5,208.5C 471.922,207.075 473.589,206.075 475.5,205.5 Z"/></g>
<g><path style="opacity:0.004" fill="#3b82bc" d="M 463.5,211.5 C 463.897,210.475 464.563,210.308 465.5,211C 464.906,211.464 464.239,211.631 463.5,211.5 Z"/></g>
<g><path style="opacity:0.008" fill="#3c81bb" d="M 464.5,212.5 C 465.833,213.167 465.833,213.167 464.5,212.5 Z"/></g>
<g><path style="opacity:0.004" fill="#3b82bb" d="M 464.5,213.5 C 463.833,214.167 463.833,214.167 464.5,213.5 Z"/></g>
<g><path style="opacity:0.004" fill="#3982be" d="M 557.5,214.5 C 558.833,215.167 558.833,215.167 557.5,214.5 Z"/></g>
<g><path style="opacity:0.882" fill="#69a6da" d="M 556.5,215.5 C 556.833,215.5 557.167,215.5 557.5,215.5C 558.11,216.391 558.443,217.391 558.5,218.5C 557.094,218.027 556.427,217.027 556.5,215.5 Z"/></g>
<g><path style="opacity:0.663" fill="#70abdc" d="M 460.5,223.5 C 460.293,226.241 459.293,228.574 457.5,230.5C 457.707,227.759 458.707,225.426 460.5,223.5 Z"/></g>
<g><path style="opacity:0.008" fill="#3d82be" d="M 455.5,228.5 C 456.833,229.167 456.833,229.167 455.5,228.5 Z"/></g>
<g><path style="opacity:0.075" fill="#6eabdf" d="M 563.5,227.5 C 564.687,229.072 565.687,230.739 566.5,232.5C 569.396,244.921 569.062,257.254 565.5,269.5C 565.863,270.183 566.196,270.85 566.5,271.5C 565.351,271.209 564.684,270.376 564.5,269C 568.688,255.044 568.355,241.211 563.5,227.5 Z"/></g>
<g><path style="opacity:0.004" fill="#3b83c1" d="M 566.5,232.5 C 566.369,231.761 566.536,231.094 567,230.5C 567.692,231.437 567.525,232.103 566.5,232.5 Z"/></g>
<g><path style="opacity:0.004" fill="#3d85c4" d="M 569.5,242.5 C 570.833,243.167 570.833,243.167 569.5,242.5 Z"/></g>
<g><path style="opacity:0.004" fill="#3d85c3" d="M 451.5,244.5 C 452.833,245.167 452.833,245.167 451.5,244.5 Z"/></g>
<g><path style="opacity:0.992" fill="#165ea6" d="M 455.5,238.5 C 456.276,247.682 456.942,257.015 457.5,266.5C 456.833,265.5 456.167,264.5 455.5,263.5C 454.214,255.163 454.214,246.83 455.5,238.5 Z"/></g>
<g><path style="opacity:0.589" fill="#86bce7" d="M 455.5,236.5 C 455.5,237.167 455.5,237.833 455.5,238.5C 454.214,246.83 454.214,255.163 455.5,263.5C 452.874,254.506 452.874,245.506 455.5,236.5 Z"/></g>
<g><path style="opacity:0.004" fill="#3983c3" d="M 451.5,251.5 C 452.833,252.167 452.833,252.167 451.5,251.5 Z"/></g>
<g><path style="opacity:0.004" fill="#3c84c4" d="M 451.5,254.5 C 452.833,255.167 452.833,255.167 451.5,254.5 Z"/></g>
<g><path style="opacity:0.125" fill="#63a1d9" d="M 455.5,263.5 C 456.167,264.5 456.833,265.5 457.5,266.5C 458.401,270.241 457.068,272.241 453.5,272.5C 454.23,271.288 455.23,270.288 456.5,269.5C 455.652,267.591 455.318,265.591 455.5,263.5 Z"/></g>
<g><path style="opacity:0.031" fill="#71ade0" d="M 575.5,276.5 C 577.027,276.427 578.027,277.094 578.5,278.5C 576.973,278.573 575.973,277.906 575.5,276.5 Z"/></g>
<g><path style="opacity:0.98" fill="#6fa9dc" d="M 446.5,276.5 C 444.664,278.588 442.331,279.921 439.5,280.5C 441.336,278.412 443.669,277.079 446.5,276.5 Z"/></g>
<g><path style="opacity:0.004" fill="#3b86c3" d="M 584.5,279.5 C 585.833,280.167 585.833,280.167 584.5,279.5 Z"/></g>
<g><path style="opacity:0.008" fill="#3883c4" d="M 432.5,281.5 C 433.833,282.167 433.833,282.167 432.5,281.5 Z"/></g>
<g><path style="opacity:0.788" fill="#70aee0" d="M 439.5,280.5 C 438.341,282.25 436.674,283.25 434.5,283.5C 435.659,281.75 437.326,280.75 439.5,280.5 Z"/></g>
<g><path style="opacity:0.004" fill="#3a87c7" d="M 416.5,287.5 C 417.833,288.167 417.833,288.167 416.5,287.5 Z"/></g>
<g><path style="opacity:0.008" fill="#3480c0" d="M 418.5,291.5 C 417.833,290.167 417.833,290.167 418.5,291.5 Z"/></g>
<g><path style="opacity:0.008" fill="#3780c2" d="M 606.5,292.5 C 607.833,293.167 607.833,293.167 606.5,292.5 Z"/></g>
<g><path style="opacity:0.008" fill="#3d86c4" d="M 400.5,295.5 C 401.833,296.167 401.833,296.167 400.5,295.5 Z"/></g>
<g><path style="opacity:0.004" fill="#3c85c5" d="M 403.5,296.5 C 404.833,297.167 404.833,297.167 403.5,296.5 Z"/></g>
<g><path style="opacity:0.012" fill="#3c89c5" d="M 617.5,298.5 C 618.833,299.167 618.833,299.167 617.5,298.5 Z"/></g>
<g><path style="opacity:0.004" fill="#3480c4" d="M 401.5,301.5 C 400.833,300.167 400.833,300.167 401.5,301.5 Z"/></g>
<g><path style="opacity:0.518" fill="#76b0e2" d="M 406.5,299.5 C 405.341,301.25 403.674,302.25 401.5,302.5C 401.5,302.167 401.5,301.833 401.5,301.5C 403.05,300.559 404.716,299.893 406.5,299.5 Z"/></g>
<g><path style="opacity:0.004" fill="#3a86c5" d="M 626.5,303.5 C 627.833,304.167 627.833,304.167 626.5,303.5 Z"/></g>
<g><path style="opacity:0.863" fill="#71abde" d="M 482.5,302.5 C 484.819,302.992 486.819,303.992 488.5,305.5C 485.911,305.539 483.911,304.539 482.5,302.5 Z"/></g>
<g><path style="opacity:0.004" fill="#3d8aca" d="M 495.5,309.5 C 496.289,309.783 496.956,310.283 497.5,311C 496.184,311.528 495.517,311.028 495.5,309.5 Z"/></g>
<g><path style="opacity:0.004" fill="#3886cc" d="M 575.5,309.5 C 576.289,309.783 576.956,310.283 577.5,311C 576.184,311.528 575.517,311.028 575.5,309.5 Z"/></g>
<g><path style="opacity:0.575" fill="#87c2f0" d="M 523.5,308.5 C 523.333,322.837 523.5,337.171 524,351.5C 524.717,352.044 525.217,352.711 525.5,353.5C 524.504,353.586 523.671,353.252 523,352.5C 522.172,337.661 522.339,322.994 523.5,308.5 Z"/></g>
<g><path style="opacity:1" fill="#3d80be" d="M 500.5,308.5 C 500.829,323.343 500.496,338.01 499.5,352.5C 499.829,337.657 499.496,322.99 498.5,308.5C 496.901,308.768 495.568,308.434 494.5,307.5C 496.144,307.714 497.644,307.38 499,306.5C 499.717,307.044 500.217,307.711 500.5,308.5 Z"/></g>
<g><path style="opacity:0.004" fill="#3a85c5" d="M 365.5,319.5 C 366.833,320.167 366.833,320.167 365.5,319.5 Z"/></g>
<g><path style="opacity:0.004" fill="#3f84be" d="M 278.5,322.5 C 279.833,323.167 279.833,323.167 278.5,322.5 Z"/></g>
<g><path style="opacity:0.004" fill="#3e87c6" d="M 359.5,322.5 C 360.833,323.167 360.833,323.167 359.5,322.5 Z"/></g>
<g><path style="opacity:0.004" fill="#3f85c2" d="M 726.5,322.5 C 727.833,323.167 727.833,323.167 726.5,322.5 Z"/></g>
<g><path style="opacity:0.004" fill="#3f87c1" d="M 721.5,323.5 C 722.833,324.167 722.833,324.167 721.5,323.5 Z"/></g>
<g><path style="opacity:0.008" fill="#3c83c1" d="M 302.5,324.5 C 303.833,325.167 303.833,325.167 302.5,324.5 Z"/></g>
<g><path style="opacity:0.633" fill="#70ace1" d="M 752.5,327.5 C 752.167,327.5 751.833,327.5 751.5,327.5C 744.269,325.888 736.935,325.221 729.5,325.5C 725.5,326.167 721.5,326.833 717.5,327.5C 722.778,325.07 728.444,324.07 734.5,324.5C 740.87,324.103 746.87,325.103 752.5,327.5 Z"/></g>
<g><path style="opacity:0.008" fill="#3f85c0" d="M 750.5,324.5 C 751.833,325.167 751.833,325.167 750.5,324.5 Z"/></g>
<g><path style="opacity:0.784" fill="#6fabdf" d="M 302.5,325.5 C 303.5,326.167 304.5,326.833 305.5,327.5C 302.167,327.167 298.833,326.833 295.5,326.5C 287.897,325.118 280.23,325.452 272.5,327.5C 271.833,327.5 271.167,327.5 270.5,327.5C 272.877,326.113 275.543,325.279 278.5,325C 286.523,324.343 294.523,324.51 302.5,325.5 Z"/></g>
<g><path style="opacity:0.984" fill="#1462ab" d="M 295.5,326.5 C 287.306,326.191 279.306,327.191 271.5,329.5C 270.833,329.333 270.167,329.167 269.5,329C 270.737,328.768 271.737,328.268 272.5,327.5C 280.23,325.452 287.897,325.118 295.5,326.5 Z"/></g>
<g><path style="opacity:0.976" fill="#105ca2" d="M 729.5,325.5 C 736.935,325.221 744.269,325.888 751.5,327.5C 750.903,328.139 750.07,328.472 749,328.5C 742.392,327.251 735.892,326.251 729.5,325.5 Z"/></g>
<g><path style="opacity:0.004" fill="#3f87c4" d="M 312.5,327.5 C 313.833,328.167 313.833,328.167 312.5,327.5 Z"/></g>
<g><path style="opacity:0.576" fill="#7bb5e4" d="M 359.5,326.5 C 358.341,328.25 356.674,329.25 354.5,329.5C 355.659,327.75 357.326,326.75 359.5,326.5 Z"/></g>
<g><path style="opacity:0.004" fill="#3c88c6" d="M 705.5,327.5 C 706.833,328.167 706.833,328.167 705.5,327.5 Z"/></g>
<g><path style="opacity:0.882" fill="#6fa8da" d="M 305.5,327.5 C 307.553,327.402 309.22,328.069 310.5,329.5C 308.447,329.598 306.78,328.931 305.5,327.5 Z"/></g>
<g><path style="opacity:0.224" fill="#63a6df" d="M 498.5,308.5 C 499.496,322.99 499.829,337.657 499.5,352.5C 499.158,353.338 498.492,353.672 497.5,353.5C 498.483,338.578 498.816,323.578 498.5,308.5 Z"/></g>
<g><path style="opacity:0.008" fill="#3582c4" d="M 708.5,328.5 C 709.833,329.167 709.833,329.167 708.5,328.5 Z"/></g>
<g><path style="opacity:0.047" fill="#69a6da" d="M 310.5,329.5 C 313.754,329.794 316.421,331.127 318.5,333.5C 315.515,332.674 312.849,331.341 310.5,329.5 Z"/></g>
<g><path style="opacity:0.004" fill="#3481c3" d="M 706.5,331.5 C 705.833,330.167 705.833,330.167 706.5,331.5 Z"/></g>
<g><path style="opacity:0.016" fill="#70abdb" d="M 757.5,329.5 C 760.754,329.794 763.421,331.127 765.5,333.5C 762.515,332.674 759.849,331.341 757.5,329.5 Z"/></g>
<g><path style="opacity:0.965" fill="#6da9de" d="M 354.5,329.5 C 353.341,331.25 351.674,332.25 349.5,332.5C 350.659,330.75 352.326,329.75 354.5,329.5 Z"/></g>
<g><path style="opacity:0.945" fill="#73aadb" d="M 706.5,332.5 C 706.027,333.906 705.027,334.573 703.5,334.5C 703.973,333.094 704.973,332.427 706.5,332.5 Z"/></g>
<g><path style="opacity:0.051" fill="#71a9da" d="M 765.5,333.5 C 767.027,333.427 768.027,334.094 768.5,335.5C 766.973,335.573 765.973,334.906 765.5,333.5 Z"/></g>
<g><path style="opacity:0.004" fill="#3a87c6" d="M 336.5,335.5 C 337.833,336.167 337.833,336.167 336.5,335.5 Z"/></g>
<g><path style="opacity:0.008" fill="#3b88ca" d="M 336.5,338.5 C 335.833,337.167 335.833,337.167 336.5,338.5 Z"/></g>
<g><path style="opacity:1" fill="#66a1d4" d="M 703.5,334.5 C 700.769,338.234 697.436,341.234 693.5,343.5C 696.205,339.795 699.538,336.795 703.5,334.5 Z"/></g>
<g><path style="opacity:0.949" fill="#6aa8dc" d="M 342.5,336.5 C 340.664,338.588 338.331,339.921 335.5,340.5C 335.833,339.833 336.167,339.167 336.5,338.5C 338.5,337.833 340.5,337.167 342.5,336.5 Z"/></g>
<g><path style="opacity:0.961" fill="#6aa8d9" d="M 253.5,336.5 C 250.833,339.833 247.833,342.833 244.5,345.5C 246.5,341.5 249.5,338.5 253.5,336.5 Z"/></g>
<g><path style="opacity:0.882" fill="#6da9dc" d="M 323.5,337.5 C 326.075,338.728 328.408,340.395 330.5,342.5C 332.075,341.544 333.742,340.877 335.5,340.5C 334.167,341.933 332.667,343.267 331,344.5C 328.002,342.667 325.502,340.334 323.5,337.5 Z"/></g>
<g><path style="opacity:0.843" fill="#6aa9e0" d="M 644.5,346.5 C 646.153,346.66 647.486,347.326 648.5,348.5C 646.62,348.771 645.287,348.104 644.5,346.5 Z"/></g>
<g><path style="opacity:0.024" fill="#67a8e0" d="M 378.5,346.5 C 376.664,348.588 374.331,349.921 371.5,350.5C 373.336,348.412 375.669,347.079 378.5,346.5 Z"/></g>
<g><path style="opacity:0.898" fill="#69a7d8" d="M 780.5,347.5 C 781.906,347.973 782.573,348.973 782.5,350.5C 781.094,350.027 780.427,349.027 780.5,347.5 Z"/></g>
<g><path style="opacity:0.004" fill="#4186bc" d="M 237.5,351.5 C 238.833,352.167 238.833,352.167 237.5,351.5 Z"/></g>
<g><path style="opacity:0.008" fill="#3e82bb" d="M 787.5,355.5 C 788.833,356.167 788.833,356.167 787.5,355.5 Z"/></g>
<g><path style="opacity:0.993" fill="#186dba" d="M 500.5,308.5 C 501.661,323.328 501.828,338.328 501,353.5C 499.667,354.167 498.667,355.167 498,356.5C 498.988,358.92 498.655,361.253 497,363.5C 496.654,361.782 496.154,360.115 495.5,358.5C 494.284,357.904 492.951,357.737 491.5,358C 493.747,356.723 495.747,355.223 497.5,353.5C 498.492,353.672 499.158,353.338 499.5,352.5C 500.496,338.01 500.829,323.343 500.5,308.5 Z"/></g>
<g><path style="opacity:0.004" fill="#3f82bc" d="M 788.5,357.5 C 789.833,358.167 789.833,358.167 788.5,357.5 Z"/></g>
<g><path style="opacity:0.006" fill="#3b88cd" d="M 363.5,358.5 C 364.386,357.224 365.386,357.224 366.5,358.5C 365.575,359.562 364.575,359.562 363.5,358.5 Z"/></g>
<g><path style="opacity:0.004" fill="#4286bc" d="M 232.5,359.5 C 233.833,360.167 233.833,360.167 232.5,359.5 Z"/></g>
<g><path style="opacity:0.631" fill="#6faddf" d="M 488.5,358.5 C 487.341,360.25 485.674,361.25 483.5,361.5C 484.659,359.75 486.326,358.75 488.5,358.5 Z"/></g>
<g><path style="opacity:0.098" fill="#72abda" d="M 785.5,355.5 C 787.267,357.792 788.267,360.458 788.5,363.5C 786.733,361.208 785.733,358.542 785.5,355.5 Z"/></g>
<g><path style="opacity:0.004" fill="#4185be" d="M 231.5,362.5 C 232.833,363.167 232.833,363.167 231.5,362.5 Z"/></g>
<g><path style="opacity:0.992" fill="#105aa1" d="M 234.5,365.5 C 235.41,363.981 236.243,362.315 237,360.5C 236.371,364.426 235.705,368.426 235,372.5C 234.503,370.19 234.337,367.857 234.5,365.5 Z"/></g>
<g><path style="opacity:0.973" fill="#68a7dd" d="M 483.5,361.5 C 482.341,363.25 480.674,364.25 478.5,364.5C 479.659,362.75 481.326,361.75 483.5,361.5 Z"/></g>
<g><path style="opacity:0.004" fill="#3b82bd" d="M 790.5,366.5 C 790.369,365.761 790.536,365.094 791,364.5C 791.692,365.437 791.525,366.103 790.5,366.5 Z"/></g>
<g><path style="opacity:0.004" fill="#3d86c1" d="M 231.5,367.5 C 232.833,368.167 232.833,368.167 231.5,367.5 Z"/></g>
<g><path style="opacity:0.071" fill="#6ba9dd" d="M 548.5,366.5 C 551.331,367.079 553.664,368.412 555.5,370.5C 552.669,369.921 550.336,368.588 548.5,366.5 Z"/></g>
<g><path style="opacity:0.573" fill="#77b0e2" d="M 679.5,366.5 C 680.621,369.591 680.287,372.591 678.5,375.5C 678.704,372.482 679.037,369.482 679.5,366.5 Z"/></g>
<g><path style="opacity:0.775" fill="#82bce9" d="M 788.5,363.5 C 789.167,364.5 789.833,365.5 790.5,366.5C 791.49,374.477 791.657,382.477 791,390.5C 790.721,393.457 789.887,396.123 788.5,398.5C 791.079,386.822 791.079,375.156 788.5,363.5 Z"/></g>
<g><path style="opacity:0.933" fill="#6cabe1" d="M 344.5,373.5 C 345.926,382.102 345.593,390.768 343.5,399.5C 342.357,396.932 342.524,394.265 344,391.5C 344.499,385.509 344.666,379.509 344.5,373.5 Z"/></g>
<g><path style="opacity:0.016" fill="#65a3d8" d="M 233.5,369.5 C 231.935,384.227 234.269,398.227 240.5,411.5C 238.926,410.016 237.593,408.349 236.5,406.5C 236.672,405.508 236.338,404.842 235.5,404.5C 234.664,400.677 233.664,397.011 232.5,393.5C 232.538,389.637 232.205,385.804 231.5,382C 231.921,377.651 232.587,373.484 233.5,369.5 Z"/></g>
<g><path style="opacity:0.663" fill="#73afe2" d="M 442.5,385.5 C 441.341,387.25 439.674,388.25 437.5,388.5C 438.659,386.75 440.326,385.75 442.5,385.5 Z"/></g>
<g><path style="opacity:0.996" fill="#407dc0" d="M 509.5,375.5 C 496.708,383.925 483.374,391.592 469.5,398.5C 469.908,397.357 470.575,396.357 471.5,395.5C 484.24,388.136 496.906,380.802 509.5,373.5C 510.463,373.97 510.463,374.637 509.5,375.5 Z"/></g>
<g><path style="opacity:0.322" fill="#7ab3e3" d="M 678.5,375.5 C 678.25,383.168 679.25,390.668 681.5,398C 680.57,400.138 678.903,401.305 676.5,401.5C 677.574,400.115 678.907,398.949 680.5,398C 677.579,390.574 676.912,383.074 678.5,375.5 Z"/></g>
<g><path style="opacity:0.004" fill="#3c83c0" d="M 232.5,393.5 C 232.649,394.552 232.483,395.552 232,396.5C 231.26,395.251 231.427,394.251 232.5,393.5 Z"/></g>
<g><path style="opacity:0.024" fill="#61a0da" d="M 539.5,389.5 C 543.683,391.757 548.016,393.757 552.5,395.5C 552.833,396.167 553.167,396.833 553.5,397.5C 548.173,395.841 543.507,393.174 539.5,389.5 Z"/></g>
<g><path style="opacity:0.988" fill="#0e58a1" d="M 785.5,355.5 C 785.733,358.542 786.733,361.208 788.5,363.5C 791.079,375.156 791.079,386.822 788.5,398.5C 787.833,399.167 787.167,399.833 786.5,400.5C 791.103,385.135 790.103,370.135 783.5,355.5C 783.97,354.537 784.637,354.537 785.5,355.5 Z"/></g>
<g><path style="opacity:0.984" fill="#6ea9db" d="M 421.5,397.5 C 421.027,398.906 420.027,399.573 418.5,399.5C 418.973,398.094 419.973,397.427 421.5,397.5 Z"/></g>
<g><path style="opacity:0.008" fill="#3c81bb" d="M 232.5,399.5 C 233.833,400.167 233.833,400.167 232.5,399.5 Z"/></g>
<g><path style="opacity:0.004" fill="#3b80ba" d="M 789.5,399.5 C 790.833,400.167 790.833,400.167 789.5,399.5 Z"/></g>
<g><path style="opacity:0.016" fill="#3a82be" d="M 233.5,402.5 C 234.833,403.167 234.833,403.167 233.5,402.5 Z"/></g>
<g><path style="opacity:0.976" fill="#6aa9dc" d="M 414.5,401.5 C 414.027,402.906 413.027,403.573 411.5,403.5C 411.973,402.094 412.973,401.427 414.5,401.5 Z"/></g>
<g><path style="opacity:0.016" fill="#3786cc" d="M 561.5,403.5 C 561.842,404.338 562.508,404.672 563.5,404.5C 563.672,405.492 563.338,406.158 562.5,406.5C 561.909,405.849 561.243,405.182 560.5,404.5C 560.624,403.893 560.957,403.56 561.5,403.5 Z"/></g>
<g><path style="opacity:0.012" fill="#3981be" d="M 235.5,404.5 C 235.5,405.167 235.5,405.833 235.5,406.5C 234.167,405.833 234.167,405.167 235.5,404.5 Z"/></g>
<g><path style="opacity:0.016" fill="#3881bd" d="M 235.5,406.5 C 235.833,406.5 236.167,406.5 236.5,406.5C 236.315,407.17 235.981,407.17 235.5,406.5 Z"/></g>
<g><path style="opacity:0.992" fill="#4984c1" d="M 788.5,398.5 C 786.999,404.503 784.666,410.169 781.5,415.5C 779.861,417.806 777.861,419.806 775.5,421.5C 779.425,414.65 783.092,407.65 786.5,400.5C 787.167,399.833 787.833,399.167 788.5,398.5 Z"/></g>
<g><path style="opacity:1" fill="#6fabdd" d="M 667.5,406.5 C 667.027,407.906 666.027,408.573 664.5,408.5C 664.973,407.094 665.973,406.427 667.5,406.5 Z"/></g>
<g><path style="opacity:0.792" fill="#6ba9dd" d="M 399.5,410.5 C 398.341,412.25 396.674,413.25 394.5,413.5C 395.659,411.75 397.326,410.75 399.5,410.5 Z"/></g>
<g><path style="opacity:0.047" fill="#74ade0" d="M 369.5,414.5 C 371.027,414.427 372.027,415.094 372.5,416.5C 370.973,416.573 369.973,415.906 369.5,414.5 Z"/></g>
<g><path style="opacity:0.008" fill="#3b80bd" d="M 781.5,415.5 C 782.833,416.167 782.833,416.167 781.5,415.5 Z"/></g>
<g><path style="opacity:0.004" fill="#3e82be" d="M 239.5,416.5 C 240.833,417.167 240.833,417.167 239.5,416.5 Z"/></g>
<g><path style="opacity:0.008" fill="#3983c2" d="M 242.5,416.5 C 241.833,417.167 241.833,417.167 242.5,416.5 Z"/></g>
<g><path style="opacity:0.918" fill="#67a6dc" d="M 650.5,416.5 C 648.487,418.497 646.154,420.164 643.5,421.5C 642.261,421.058 641.261,420.391 640.5,419.5C 644.154,419.5 647.487,418.5 650.5,416.5 Z"/></g>
<g><path style="opacity:0.031" fill="#6ba6db" d="M 245.5,418.5 C 248.5,420.833 251.167,423.5 253.5,426.5C 249.833,424.833 247.167,422.167 245.5,418.5 Z"/></g>
<g><path style="opacity:0.004" fill="#3d83c0" d="M 239.5,420.5 C 240.833,421.167 240.833,421.167 239.5,420.5 Z"/></g>
<g><path style="opacity:0.216" fill="#62a1d8" d="M 374.5,417.5 C 376.84,418.086 379.007,419.086 381,420.5C 382.33,419.418 383.83,418.751 385.5,418.5C 381.64,422.353 377.973,422.019 374.5,417.5 Z"/></g>
<g><path style="opacity:0.004" fill="#3b86c1" d="M 243.5,421.5 C 244.833,422.167 244.833,422.167 243.5,421.5 Z"/></g>
<g><path style="opacity:1" fill="#3b7bc0" d="M 552.5,395.5 C 554.258,395.877 555.925,396.544 557.5,397.5C 559.518,396.187 560.685,396.853 561,399.5C 562.085,400.293 563.252,400.96 564.5,401.5C 566.343,400.061 568.01,400.228 569.5,402C 568.833,402.333 568.167,402.667 567.5,403C 582.759,412.541 599.092,422.208 616.5,432C 617.687,433.019 618.687,434.186 619.5,435.5C 616.929,437.952 613.929,439.619 610.5,440.5C 610.833,439.833 611.167,439.167 611.5,438.5C 612.167,437.833 612.833,437.167 613.5,436.5C 614.497,436.53 615.164,436.03 615.5,435C 608.207,429.875 600.54,425.375 592.5,421.5C 588.836,418.665 584.836,416.332 580.5,414.5C 575.335,410.414 569.668,407.08 563.5,404.5C 563.158,403.662 562.492,403.328 561.5,403.5C 558.833,401.5 556.167,399.5 553.5,397.5C 553.167,396.833 552.833,396.167 552.5,395.5 Z"/></g>
<g><path style="opacity:0.012" fill="#6faee4" d="M 428.5,422.5 C 428.027,423.906 427.027,424.573 425.5,424.5C 425.973,423.094 426.973,422.427 428.5,422.5 Z"/></g>
<g><path style="opacity:0.718" fill="#6da9de" d="M 338.5,425.5 C 342.505,426.498 345.839,428.498 348.5,431.5C 344.827,430 341.494,428 338.5,425.5 Z"/></g>
<g><path style="opacity:0.957" fill="#71abdd" d="M 257.5,429.5 C 261.151,430.659 264.485,432.326 267.5,434.5C 266.5,434.5 265.5,434.5 264.5,434.5C 261.991,433.079 259.657,431.412 257.5,429.5 Z"/></g>
<g><path style="opacity:0.008" fill="#3c85c2" d="M 765.5,430.5 C 766.833,431.167 766.833,431.167 765.5,430.5 Z"/></g>
<g><path style="opacity:0.996" fill="#1462ad" d="M 267.5,434.5 C 264.485,432.326 261.151,430.659 257.5,429.5C 257.047,428.542 256.381,427.708 255.5,427C 261.801,430.135 268.467,432.802 275.5,435C 272.843,435.175 270.176,435.008 267.5,434.5 Z"/></g>
<g><path style="opacity:0.718" fill="#71ade1" d="M 705.5,430.5 C 708.485,431.326 711.151,432.659 713.5,434.5C 710.246,434.206 707.579,432.873 705.5,430.5 Z"/></g>
<g><path style="opacity:0.004" fill="#3c88ca" d="M 264.5,434.5 C 264.5,434.833 264.5,435.167 264.5,435.5C 263.83,435.019 263.83,434.685 264.5,434.5 Z"/></g>
<g><path style="opacity:0.059" fill="#6aa8dd" d="M 350.5,432.5 C 353.331,433.079 355.664,434.412 357.5,436.5C 356.833,436.5 356.167,436.5 355.5,436.5C 354.828,435.733 353.995,435.066 353,434.5C 351.692,435.151 350.859,434.485 350.5,432.5 Z"/></g>
<g><path style="opacity:0.006" fill="#3d88ca" d="M 264.5,435.5 C 265.525,435.897 265.692,436.563 265,437.5C 264.536,436.906 264.369,436.239 264.5,435.5 Z"/></g>
<g><path style="opacity:0.004" fill="#3f87c8" d="M 756.5,435.5 C 757.833,436.167 757.833,436.167 756.5,435.5 Z"/></g>
<g><path style="opacity:0.004" fill="#3b89ca" d="M 266.5,436.5 C 267.525,436.897 267.692,437.563 267,438.5C 266.536,437.906 266.369,437.239 266.5,436.5 Z"/></g>
<g><path style="opacity:0.006" fill="#3a87cc" d="M 355.5,436.5 C 355.167,437.167 354.833,437.833 354.5,438.5C 351.814,437.012 352.147,436.345 355.5,436.5 Z"/></g>
<g><path style="opacity:0.004" fill="#3e8bcc" d="M 271.5,437.5 C 272.833,438.167 272.833,438.167 271.5,437.5 Z"/></g>
<g><path style="opacity:0.984" fill="#65a3d8" d="M 611.5,438.5 C 611.167,439.167 610.833,439.833 610.5,440.5C 609.833,440.5 609.167,440.5 608.5,440.5C 608.973,439.094 609.973,438.427 611.5,438.5 Z"/></g>
<g><path style="opacity:0.588" fill="#74b3e3" d="M 606.5,441.5 C 605.341,443.25 603.674,444.25 601.5,444.5C 602.659,442.75 604.326,441.75 606.5,441.5 Z"/></g>
<g><path style="opacity:0.141" fill="#71ace0" d="M 421.5,444.5 C 425.836,446.332 429.836,448.665 433.5,451.5C 428.835,450.172 424.835,447.839 421.5,444.5 Z"/></g>
<g><path style="opacity:0.925" fill="#70aadf" d="M 587.5,452.5 C 585.664,454.588 583.331,455.921 580.5,456.5C 582.336,454.412 584.669,453.079 587.5,452.5 Z"/></g>
<g><path style="opacity:0.761" fill="#71afe5" d="M 399.5,459.5 C 401.027,459.427 402.027,460.094 402.5,461.5C 400.973,461.573 399.973,460.906 399.5,459.5 Z"/></g>
<g><path style="opacity:0.377" fill="#80beee" d="M 657.5,440.5 C 657.189,441.478 656.522,442.145 655.5,442.5C 654.5,485.161 654.167,527.828 654.5,570.5C 653.501,527.67 653.168,484.67 653.5,441.5C 654.833,441.167 656.167,440.833 657.5,440.5 Z"/></g>
<g><path style="opacity:0.792" fill="#6facdf" d="M 411.5,466.5 C 413.027,466.427 414.027,467.094 414.5,468.5C 413.833,468.5 413.167,468.5 412.5,468.5C 412.167,467.833 411.833,467.167 411.5,466.5 Z"/></g>
<g><path style="opacity:0.988" fill="#3e7bbf" d="M 416.5,469.5 C 419.425,469.46 422.091,470.293 424.5,472C 434.67,478.252 445.003,484.252 455.5,490C 456.305,491.113 456.972,492.279 457.5,493.5C 455.02,492.758 452.687,491.758 450.5,490.5C 439.167,483.5 427.833,476.5 416.5,469.5 Z"/></g>
<g><path style="opacity:0.994" fill="#1160aa" d="M 630.5,454.5 C 631.833,473.655 632.5,493.155 632.5,513C 632.333,532.5 632.167,552 632,571.5C 629.797,574.14 628.963,574.14 629.5,571.5C 630.499,532.67 630.832,493.67 630.5,454.5 Z"/></g>
<g><path style="opacity:0.953" fill="#69a9dd" d="M 546.5,476.5 C 546.027,477.906 545.027,478.573 543.5,478.5C 543.973,477.094 544.973,476.427 546.5,476.5 Z"/></g>
<g><path style="opacity:0.788" fill="#72adde" d="M 543.5,478.5 C 542.341,480.25 540.674,481.25 538.5,481.5C 539.659,479.75 541.326,478.75 543.5,478.5 Z"/></g>
<g><path style="opacity:0.008" fill="#64a7e0" d="M 583.5,482.5 C 583.167,483.167 582.833,483.833 582.5,484.5C 581.167,484.833 579.833,485.167 578.5,485.5C 579.659,483.75 581.326,482.75 583.5,482.5 Z"/></g>
<g><path style="opacity:0.007" fill="#3988cc" d="M 439.5,485.5 C 440.289,485.783 440.956,486.283 441.5,487C 440.184,487.528 439.517,487.028 439.5,485.5 Z"/></g>
<g><path style="opacity:0.627" fill="#6babdd" d="M 531.5,485.5 C 530.341,487.25 528.674,488.25 526.5,488.5C 527.659,486.75 529.326,485.75 531.5,485.5 Z"/></g>
<g><path style="opacity:0.751" fill="#559ad7" d="M 391.5,455.5 C 394.089,455.461 396.089,456.461 397.5,458.5C 395.83,458.249 394.33,457.582 393,456.5C 392.833,460.333 392.667,464.167 392.5,468C 392.738,492.738 392.738,516.571 392.5,539.5C 393.147,550.836 393.813,561.836 394.5,572.5C 393.504,572.586 392.671,572.252 392,571.5C 391.5,532.835 391.333,494.168 391.5,455.5 Z"/></g>
<g><path style="opacity:0.698" fill="#75b0e1" d="M 459.5,494.5 C 461.027,494.427 462.027,495.094 462.5,496.5C 460.973,496.573 459.973,495.906 459.5,494.5 Z"/></g>
<g><path style="opacity:0.737" fill="#63a6dd" d="M 516.5,494.5 C 514.915,496.982 512.915,497.648 510.5,496.5C 512.5,495.833 514.5,495.167 516.5,494.5 Z"/></g>
<g><path style="opacity:0.031" fill="#66a6dc" d="M 462.5,496.5 C 465.331,497.079 467.664,498.412 469.5,500.5C 468.167,500.167 466.833,499.833 465.5,499.5C 464.306,498.728 463.306,497.728 462.5,496.5 Z"/></g>
<g><path style="opacity:0.89" fill="#73ace0" d="M 274.5,436.5 C 276.495,482.155 277.162,528.155 276.5,574.5C 272.5,575.5 268.5,576.5 264.5,577.5C 267.231,575.802 270.231,574.469 273.5,573.5C 274.84,572.312 275.507,570.812 275.5,569C 275.619,524.774 275.285,480.608 274.5,436.5 Z"/></g>
<g><path style="opacity:0.749" fill="#6eaadf" d="M 471.5,501.5 C 473.674,501.75 475.341,502.75 476.5,504.5C 474.326,504.25 472.659,503.25 471.5,501.5 Z"/></g>
<g><path style="opacity:0.996" fill="#085091" d="M 391.5,455.5 C 391.333,494.168 391.5,532.835 392,571.5C 392.671,572.252 393.504,572.586 394.5,572.5C 395.463,573.363 395.463,574.03 394.5,574.5C 393.252,573.96 392.085,573.293 391,572.5C 390.169,533.331 390.335,494.331 391.5,455.5 Z"/></g>
<g><path style="opacity:0.992" fill="#01488d" d="M 747.5,436.5 C 745.505,481.821 744.838,527.488 745.5,573.5C 744.172,528.234 744.172,482.234 745.5,435.5C 747.098,434.515 748.765,434.349 750.5,435C 749.263,435.232 748.263,435.732 747.5,436.5 Z"/></g>
<g><path style="opacity:0.608" fill="#70ade4" d="M 495.5,515.5 C 496.167,515.5 496.833,515.5 497.5,515.5C 497.833,516.167 498.167,516.833 498.5,517.5C 496.973,517.573 495.973,516.906 495.5,515.5 Z"/></g>
<g><path style="opacity:0.972" fill="#60a2d5" d="M 747.5,436.5 C 746.184,481.655 746.184,526.988 747.5,572.5C 748.5,573.167 749.5,573.833 750.5,574.5C 748.708,574.634 747.042,574.301 745.5,573.5C 744.838,527.488 745.505,481.821 747.5,436.5 Z"/></g>
<g><path style="opacity:0.994" fill="#1767ae" d="M 653.5,441.5 C 653.168,484.67 653.501,527.67 654.5,570.5C 653.811,571.774 652.977,571.774 652,570.5C 651.333,527.833 651.333,485.167 652,442.5C 652.383,441.944 652.883,441.611 653.5,441.5 Z"/></g>
<g><path style="opacity:0.771" fill="#8bc7f5" d="M 302.5,436.5 C 302.082,437.222 301.416,437.722 300.5,438C 300.511,482.959 300.511,528.126 300.5,573.5C 299.501,528.67 299.168,483.67 299.5,438.5C 299.821,436.952 300.821,436.285 302.5,436.5 Z"/></g>
<g><path style="opacity:0.46" fill="#8bc4f0" d="M 721.5,436.5 C 722.499,482.33 722.832,528.33 722.5,574.5C 721.167,574.5 719.833,574.5 718.5,574.5C 719.209,573.596 720.209,573.263 721.5,573.5C 721.5,527.833 721.5,482.167 721.5,436.5 Z"/></g>
<g><path style="opacity:0.358" fill="#82bee9" d="M 630.5,454.5 C 630.832,493.67 630.499,532.67 629.5,571.5C 629.667,533.165 629.5,494.832 629,456.5C 627.67,457.582 626.17,458.249 624.5,458.5C 626.147,456.674 628.147,455.34 630.5,454.5 Z"/></g>
<g><path style="opacity:0.667" fill="#71b2ea" d="M 366.5,441.5 C 367.496,441.414 368.329,441.748 369,442.5C 369.831,485.335 369.665,528.002 368.5,570.5C 368.667,528.165 368.5,485.832 368,443.5C 367.283,442.956 366.783,442.289 366.5,441.5 Z"/></g>
<g><path style="opacity:0.016" fill="#3584c8" d="M 747.5,572.5 C 747.897,571.475 748.563,571.308 749.5,572C 748.906,572.464 748.239,572.631 747.5,572.5 Z"/></g>
<g><path style="opacity:0.004" fill="#3c86c4" d="M 255.5,575.5 C 256.833,576.167 256.833,576.167 255.5,575.5 Z"/></g>
<g><path style="opacity:0.984" fill="#78b1e2" d="M 304.5,574.5 C 306.553,574.402 308.22,575.069 309.5,576.5C 307.447,576.598 305.78,575.931 304.5,574.5 Z"/></g>
<g><path style="opacity:0.961" fill="#71abdd" d="M 363.5,573.5 C 362.341,575.25 360.674,576.25 358.5,576.5C 359.659,574.75 361.326,573.75 363.5,573.5 Z"/></g>
<g><path style="opacity:0.004" fill="#3985c2" d="M 260.5,576.5 C 261.833,577.167 261.833,577.167 260.5,576.5 Z"/></g>
<g><path style="opacity:0.988" fill="#1457a0" d="M 299.5,438.5 C 299.168,483.67 299.501,528.67 300.5,573.5C 302.099,573.232 303.432,573.566 304.5,574.5C 305.78,575.931 307.447,576.598 309.5,576.5C 311.849,578.341 314.515,579.674 317.5,580.5C 318.463,581.363 318.463,582.03 317.5,582.5C 311.659,578.776 305.325,576.442 298.5,575.5C 298.168,529.664 298.501,483.997 299.5,438.5 Z"/></g>
<g><path style="opacity:0.004" fill="#6ca9dc" d="M 309.5,576.5 C 312.754,576.794 315.421,578.127 317.5,580.5C 314.515,579.674 311.849,578.341 309.5,576.5 Z"/></g>
<g><path style="opacity:0.004" fill="#3c87c6" d="M 256.5,578.5 C 257.833,579.167 257.833,579.167 256.5,578.5 Z"/></g>
<g><path style="opacity:0.62" fill="#6fabe0" d="M 617.5,578.5 C 616.341,580.25 614.674,581.25 612.5,581.5C 613.659,579.75 615.326,578.75 617.5,578.5 Z"/></g>
<g><path style="opacity:0.91" fill="#6eabdf" d="M 708.5,578.5 C 706.853,580.326 704.853,581.66 702.5,582.5C 703.802,580.178 705.802,578.845 708.5,578.5 Z"/></g>
<g><path style="opacity:1" fill="#77adde" d="M 349.5,581.5 C 349.027,582.906 348.027,583.573 346.5,583.5C 346.973,582.094 347.973,581.427 349.5,581.5 Z"/></g>
<g><path style="opacity:0.051" fill="#69a9de" d="M 321.5,583.5 C 325.1,585.43 328.1,588.097 330.5,591.5C 326.9,589.57 323.9,586.903 321.5,583.5 Z"/></g>
<g><path style="opacity:0.918" fill="#6ca9dc" d="M 346.5,583.5 C 344.664,585.588 342.331,586.921 339.5,587.5C 340.306,586.272 341.306,585.272 342.5,584.5C 343.833,584.167 345.167,583.833 346.5,583.5 Z"/></g>
<g><path style="opacity:0.992" fill="#66a3d9" d="M 702.5,582.5 C 699.704,585.797 696.704,588.964 693.5,592C 692.563,592.692 691.897,592.525 691.5,591.5C 694.895,588.098 698.562,585.098 702.5,582.5 Z"/></g>
<g><path style="opacity:1" fill="#64a0d4" d="M 254.5,583.5 C 251.833,586.833 248.833,589.833 245.5,592.5C 247.5,588.5 250.5,585.5 254.5,583.5 Z"/></g>
<g><path style="opacity:0.082" fill="#7bb3e2" d="M 425.5,590.5 C 427.027,590.427 428.027,591.094 428.5,592.5C 426.973,592.573 425.973,591.906 425.5,590.5 Z"/></g>
<g><path style="opacity:0.004" fill="#3d83be" d="M 240.5,591.5 C 241.833,592.167 241.833,592.167 240.5,591.5 Z"/></g>
<g><path style="opacity:0.804" fill="#78b4e5" d="M 337.5,588.5 C 335.911,590.306 333.911,591.639 331.5,592.5C 330.893,592.376 330.56,592.043 330.5,591.5C 332.713,590.227 335.046,589.227 337.5,588.5 Z"/></g>
<g><path style="opacity:0.992" fill="#075aaa" d="M 497.5,515.5 C 499.017,515.511 500.184,516.177 501,517.5C 501.667,555.833 501.667,594.167 501,632.5C 500.833,594.331 500.333,556.331 499.5,518.5C 499.5,517.833 499.167,517.5 498.5,517.5C 498.167,516.833 497.833,516.167 497.5,515.5 Z"/></g>
<g><path style="opacity:0.98" fill="#6faadd" d="M 593.5,592.5 C 592.341,594.25 590.674,595.25 588.5,595.5C 589.659,593.75 591.326,592.75 593.5,592.5 Z"/></g>
<g><path style="opacity:0.925" fill="#72aee3" d="M 652.5,597.5 C 654.674,597.75 656.341,598.75 657.5,600.5C 655.326,600.25 653.659,599.25 652.5,597.5 Z"/></g>
<g><path style="opacity:0.008" fill="#3e84bb" d="M 789.5,599.5 C 790.833,600.167 790.833,600.167 789.5,599.5 Z"/></g>
<g><path style="opacity:0.118" fill="#77b4e3" d="M 442.5,600.5 C 444.027,600.427 445.027,601.094 445.5,602.5C 443.973,602.573 442.973,601.906 442.5,600.5 Z"/></g>
<g><path style="opacity:0.886" fill="#6caade" d="M 445.5,602.5 C 447.38,602.229 448.713,602.896 449.5,604.5C 447.847,604.34 446.514,603.674 445.5,602.5 Z"/></g>
<g><path style="opacity:0.008" fill="#3d84bc" d="M 234.5,604.5 C 235.833,605.167 235.833,605.167 234.5,604.5 Z"/></g>
<g><path style="opacity:0.078" fill="#66a6db" d="M 449.5,604.5 C 451.027,604.427 452.027,605.094 452.5,606.5C 450.973,606.573 449.973,605.906 449.5,604.5 Z"/></g>
<g><path style="opacity:0.922" fill="#68a2d4" d="M 238.5,603.5 C 237.736,606.018 236.736,608.351 235.5,610.5C 235.166,607.509 236.166,605.176 238.5,603.5 Z"/></g>
<g><path style="opacity:1" fill="#105da7" d="M 234.5,643.5 C 233.668,635.195 233.335,626.862 233.5,618.5C 235.04,616.162 235.706,613.495 235.5,610.5C 236.736,608.351 237.736,606.018 238.5,603.5C 239.363,602.537 240.03,602.537 240.5,603.5C 234.354,616.351 233.021,629.685 236.5,643.5C 236.03,644.463 235.363,644.463 234.5,643.5 Z"/></g>
<g><path style="opacity:0.213" fill="#64a8e1" d="M 498.5,517.5 C 499.167,517.5 499.5,517.833 499.5,518.5C 499.667,557.168 499.5,595.835 499,634.5C 496.833,633.512 495,632.179 493.5,630.5C 495.39,630.297 496.89,630.963 498,632.5C 498.5,594.168 498.667,555.835 498.5,517.5 Z"/></g>
<g><path style="opacity:0.012" fill="#69a9dc" d="M 452.5,606.5 C 455.331,607.079 457.664,608.412 459.5,610.5C 456.669,609.921 454.336,608.588 452.5,606.5 Z"/></g>
<g><path style="opacity:0.992" fill="#6cacdf" d="M 567.5,607.5 C 567.027,608.906 566.027,609.573 564.5,609.5C 564.973,608.094 565.973,607.427 567.5,607.5 Z"/></g>
<g><path style="opacity:0.012" fill="#6baae1" d="M 614.5,608.5 C 613.341,610.25 611.674,611.25 609.5,611.5C 610.659,609.75 612.326,608.75 614.5,608.5 Z"/></g>
<g><path style="opacity:0.004" fill="#3c84c0" d="M 231.5,612.5 C 232.833,613.167 232.833,613.167 231.5,612.5 Z"/></g>
<g><path style="opacity:1" fill="#5b98ce" d="M 235.5,610.5 C 235.706,613.495 235.04,616.162 233.5,618.5C 233.294,615.505 233.96,612.838 235.5,610.5 Z"/></g>
<g><path style="opacity:0.498" fill="#81bdec" d="M 523.5,517.5 C 523.333,555.835 523.5,594.168 524,632.5C 525.993,631.086 528.16,630.086 530.5,629.5C 528.428,631.726 525.928,633.393 523,634.5C 522.169,595.331 522.335,556.331 523.5,517.5 Z"/></g>
<g><path style="opacity:0.035" fill="#72afe2" d="M 480.5,622.5 C 482.027,622.427 483.027,623.094 483.5,624.5C 481.973,624.573 480.973,623.906 480.5,622.5 Z"/></g>
<g><path style="opacity:0.784" fill="#6eace1" d="M 542.5,622.5 C 541.341,624.25 539.674,625.25 537.5,625.5C 538.659,623.75 540.326,622.75 542.5,622.5 Z"/></g>
<g><path style="opacity:0.959" fill="#6eade1" d="M 233.5,618.5 C 233.335,626.862 233.668,635.195 234.5,643.5C 234.5,644.167 234.5,644.833 234.5,645.5C 232.948,640.599 232.281,635.432 232.5,630C 232.501,625.985 232.835,622.151 233.5,618.5 Z"/></g>
<g><path style="opacity:0.885" fill="#77b4e5" d="M 788.5,611.5 C 789.776,613.562 790.61,615.896 791,618.5C 791.92,628.593 791.42,638.593 789.5,648.5C 789.167,648.5 788.833,648.5 788.5,648.5C 791.167,636.167 791.167,623.833 788.5,611.5 Z"/></g>
<g><path style="opacity:0.714" fill="#6facdd" d="M 537.5,625.5 C 536.341,627.25 534.674,628.25 532.5,628.5C 533.659,626.75 535.326,625.75 537.5,625.5 Z"/></g>
<g><path style="opacity:0.933" fill="#69a8de" d="M 344.5,619.5 C 345.491,626.313 345.825,633.313 345.5,640.5C 344.172,642.444 343.839,644.444 344.5,646.5C 343.833,646.5 343.167,646.5 342.5,646.5C 344.214,637.601 344.881,628.601 344.5,619.5 Z"/></g>
<g><path style="opacity:0.043" fill="#6cabe0" d="M 490.5,628.5 C 492.027,628.427 493.027,629.094 493.5,630.5C 491.973,630.573 490.973,629.906 490.5,628.5 Z"/></g>
<g><path style="opacity:0.737" fill="#84bae8" d="M 678.5,623.5 C 678.635,629.181 678.968,634.848 679.5,640.5C 678.046,637.282 677.379,633.782 677.5,630C 677.504,627.639 677.837,625.473 678.5,623.5 Z"/></g>
<g><path style="opacity:0.992" fill="#115da7" d="M 344.5,619.5 C 344.881,628.601 344.214,637.601 342.5,646.5C 341.861,645.903 341.528,645.07 341.5,644C 344.145,634.504 344.145,625.004 341.5,615.5C 341.667,614.833 341.833,614.167 342,613.5C 342.566,615.723 343.4,617.723 344.5,619.5 Z"/></g>
<g><path style="opacity:0.004" fill="#3d84bf" d="M 232.5,646.5 C 231.833,645.167 231.833,645.167 232.5,646.5 Z"/></g>
<g><path style="opacity:1" fill="#6dabe1" d="M 679.5,641.5 C 681.139,645.804 679.472,648.138 674.5,648.5C 675.406,647.035 676.739,646.035 678.5,645.5C 679.429,644.311 679.762,642.978 679.5,641.5 Z"/></g>
<g><path style="opacity:0.008" fill="#3b7eba" d="M 232.5,646.5 C 233.525,646.897 233.692,647.563 233,648.5C 232.536,647.906 232.369,647.239 232.5,646.5 Z"/></g>
<g><path style="opacity:0.086" fill="#72aee0" d="M 346.5,647.5 C 349.331,648.079 351.664,649.412 353.5,651.5C 350.669,650.921 348.336,649.588 346.5,647.5 Z"/></g>
<g><path style="opacity:0.008" fill="#367db9" d="M 789.5,648.5 C 790.833,649.167 790.833,649.167 789.5,648.5 Z"/></g>
<g><path style="opacity:0.005" fill="#3b80ba" d="M 235.5,651.5 C 235.607,653.379 235.107,653.712 234,652.5C 233.368,649.125 233.868,648.791 235.5,651.5 Z"/></g>
<g><path style="opacity:0.961" fill="#71abde" d="M 674.5,648.5 C 673.341,650.25 671.674,651.25 669.5,651.5C 670.659,649.75 672.326,648.75 674.5,648.5 Z"/></g>
<g><path style="opacity:0.005" fill="#3b88cc" d="M 481.5,652.5 C 482.475,654.54 481.808,654.873 479.5,653.5C 479.957,652.702 480.624,652.369 481.5,652.5 Z"/></g>
<g><path style="opacity:0.008" fill="#3a83bd" d="M 235.5,654.5 C 236.833,655.167 236.833,655.167 235.5,654.5 Z"/></g>
<g><path style="opacity:0.949" fill="#77b1e1" d="M 667.5,652.5 C 665.664,654.588 663.331,655.921 660.5,656.5C 662.336,654.412 664.669,653.079 667.5,652.5 Z"/></g>
<g><path style="opacity:0.827" fill="#71aadb" d="M 786.5,653.5 C 786.34,655.153 785.674,656.486 784.5,657.5C 784.229,655.62 784.896,654.287 786.5,653.5 Z"/></g>
<g><path style="opacity:0.161" fill="#7ab1e0" d="M 237.5,653.5 C 239.104,654.287 239.771,655.62 239.5,657.5C 238.326,656.486 237.66,655.153 237.5,653.5 Z"/></g>
<g><path style="opacity:0.969" fill="#71aee1" d="M 660.5,656.5 C 659.341,658.25 657.674,659.25 655.5,659.5C 656.659,657.75 658.326,656.75 660.5,656.5 Z"/></g>
<g><path style="opacity:0.965" fill="#68a3d8" d="M 239.5,657.5 C 242.241,659.975 244.241,662.975 245.5,666.5C 242.723,664.049 240.723,661.049 239.5,657.5 Z"/></g>
<g><path style="opacity:0.976" fill="#72aede" d="M 655.5,659.5 C 654.341,661.25 652.674,662.25 650.5,662.5C 651.659,660.75 653.326,659.75 655.5,659.5 Z"/></g>
<g><path style="opacity:0.004" fill="#397eb8" d="M 781.5,664.5 C 782.833,665.167 782.833,665.167 781.5,664.5 Z"/></g>
<g><path style="opacity:0.004" fill="#3d80ba" d="M 240.5,667.5 C 240.897,666.475 241.563,666.308 242.5,667C 241.906,667.464 241.239,667.631 240.5,667.5 Z"/></g>
<g><path style="opacity:0.008" fill="#3d82bb" d="M 780.5,667.5 C 781.833,668.167 781.833,668.167 780.5,667.5 Z"/></g>
<g><path style="opacity:0.059" fill="#65a6dd" d="M 694.5,669.5 C 691.404,668.349 688.404,668.682 685.5,670.5C 687.089,668.694 689.089,667.361 691.5,666.5C 693.213,666.879 694.213,667.879 694.5,669.5 Z"/></g>
<g><path style="opacity:0.004" fill="#3d83bc" d="M 246.5,670.5 C 247.833,671.167 247.833,671.167 246.5,670.5 Z"/></g>
<g><path style="opacity:0.223" fill="#5a9dd8" d="M 492.5,657.5 C 495.331,658.079 497.664,659.412 499.5,661.5C 499.5,674.167 499.5,686.833 499.5,699.5C 498.5,699.5 497.5,699.5 496.5,699.5C 497.793,693.239 498.46,686.739 498.5,680C 498.333,673.833 498.167,667.667 498,661.5C 497.329,660.748 496.496,660.414 495.5,660.5C 494.306,659.728 493.306,658.728 492.5,657.5 Z"/></g>
<g><path style="opacity:0.98" fill="#1369b6" d="M 499.5,661.5 C 497.664,659.412 495.331,658.079 492.5,657.5C 491.508,657.672 490.842,657.338 490.5,656.5C 489.537,655.637 489.537,654.97 490.5,654.5C 494.019,655.144 497.353,656.31 500.5,658C 499.346,658.914 499.513,659.747 501,660.5C 501.667,673.5 501.667,686.5 501,699.5C 500.831,686.66 500.331,673.993 499.5,661.5 Z"/></g>
<g><path style="opacity:0.965" fill="#74aee0" d="M 631.5,673.5 C 630.341,675.25 628.674,676.25 626.5,676.5C 626.833,675.833 627.167,675.167 627.5,674.5C 628.833,674.167 630.167,673.833 631.5,673.5 Z"/></g>
<g><path style="opacity:0.004" fill="#3b85c8" d="M 343.5,677.5 C 344.525,677.897 344.692,678.563 344,679.5C 343.536,678.906 343.369,678.239 343.5,677.5 Z"/></g>
<g><path style="opacity:0.984" fill="#68a5d7" d="M 626.5,676.5 C 626.027,677.906 625.027,678.573 623.5,678.5C 623.973,677.094 624.973,676.427 626.5,676.5 Z"/></g>
<g><path style="opacity:0.004" fill="#3b82ba" d="M 253.5,678.5 C 254.833,679.167 254.833,679.167 253.5,678.5 Z"/></g>
<g><path style="opacity:0.004" fill="#3c87c5" d="M 341.5,678.5 C 342.833,679.167 342.833,679.167 341.5,678.5 Z"/></g>
<g><path style="opacity:0.012" fill="#3b85ca" d="M 346.5,678.5 C 347.833,679.167 347.833,679.167 346.5,678.5 Z"/></g>
<g><path style="opacity:0.031" fill="#7cb1e2" d="M 400.5,678.5 C 402.027,678.427 403.027,679.094 403.5,680.5C 401.973,680.573 400.973,679.906 400.5,678.5 Z"/></g>
<g><path style="opacity:0.016" fill="#6ca5d7" d="M 259.5,678.5 C 261.819,678.992 263.819,679.992 265.5,681.5C 262.911,681.539 260.911,680.539 259.5,678.5 Z"/></g>
<g><path style="opacity:0.004" fill="#3d84c5" d="M 707.5,681.5 C 708.833,682.167 708.833,682.167 707.5,681.5 Z"/></g>
<g><path style="opacity:0.827" fill="#6da9dd" d="M 311.5,681.5 C 309.208,683.267 306.542,684.267 303.5,684.5C 304.167,683.833 304.833,683.167 305.5,682.5C 307.5,682.167 309.5,681.833 311.5,681.5 Z"/></g>
<g><path style="opacity:1" fill="#145fa8" d="M 305.5,682.5 C 304.833,683.167 304.167,683.833 303.5,684.5C 296.191,685.248 288.858,685.582 281.5,685.5C 289.396,684.766 297.396,683.766 305.5,682.5 Z"/></g>
<g><path style="opacity:0.008" fill="#3a85c3" d="M 714.5,684.5 C 715.833,685.167 715.833,685.167 714.5,684.5 Z"/></g>
<g><path style="opacity:1" fill="#1461ab" d="M 752.5,682.5 C 749.797,683.963 746.797,684.796 743.5,685C 735.811,685.647 728.144,685.48 720.5,684.5C 720.082,683.778 719.416,683.278 718.5,683C 719,682.833 719.5,682.667 720,682.5C 730.831,685.096 741.664,685.096 752.5,682.5 Z"/></g>
<g><path style="opacity:0.004" fill="#3b83be" d="M 756.5,684.5 C 757.833,685.167 757.833,685.167 756.5,684.5 Z"/></g>
<g><path style="opacity:0.008" fill="#3b85c2" d="M 272.5,686.5 C 271.833,685.167 271.833,685.167 272.5,686.5 Z"/></g>
<g><path style="opacity:0.934" fill="#6fafe4" d="M 303.5,684.5 C 298.587,686.007 293.421,686.674 288,686.5C 284.317,686.499 280.817,686.165 277.5,685.5C 278.833,685.5 280.167,685.5 281.5,685.5C 288.858,685.582 296.191,685.248 303.5,684.5 Z"/></g>
<g><path style="opacity:0.004" fill="#3b84c7" d="M 354.5,685.5 C 355.833,686.167 355.833,686.167 354.5,685.5 Z"/></g>
<g><path style="opacity:0.004" fill="#3a84c5" d="M 357.5,685.5 C 358.833,686.167 358.833,686.167 357.5,685.5 Z"/></g>
<g><path style="opacity:0.92" fill="#72b1e4" d="M 752.5,682.5 C 753.833,682.5 755.167,682.5 756.5,682.5C 754.723,683.6 752.723,684.434 750.5,685C 740.152,687.775 730.152,687.609 720.5,684.5C 728.144,685.48 735.811,685.647 743.5,685C 746.797,684.796 749.797,683.963 752.5,682.5 Z"/></g>
<g><path style="opacity:0.004" fill="#3c81be" d="M 752.5,685.5 C 753.833,686.167 753.833,686.167 752.5,685.5 Z"/></g>
<g><path style="opacity:0.004" fill="#3a83c3" d="M 272.5,686.5 C 273.833,687.167 273.833,687.167 272.5,686.5 Z"/></g>
<g><path style="opacity:0.004" fill="#3a83c5" d="M 357.5,686.5 C 356.833,687.167 356.833,687.167 357.5,686.5 Z"/></g>
<g><path style="opacity:0.008" fill="#3b83c4" d="M 720.5,686.5 C 721.833,687.167 721.833,687.167 720.5,686.5 Z"/></g>
<g><path style="opacity:0.008" fill="#3c85c3" d="M 747.5,686.5 C 748.833,687.167 748.833,687.167 747.5,686.5 Z"/></g>
<g><path style="opacity:0.969" fill="#6ca9db" d="M 607.5,687.5 C 607.027,688.906 606.027,689.573 604.5,689.5C 604.973,688.094 605.973,687.427 607.5,687.5 Z"/></g>
<g><path style="opacity:0.008" fill="#3782c5" d="M 368.5,690.5 C 367.833,691.167 367.833,691.167 368.5,690.5 Z"/></g>
<g><path style="opacity:0.957" fill="#68a7dc" d="M 604.5,689.5 C 603.341,691.25 601.674,692.25 599.5,692.5C 600.659,690.75 602.326,689.75 604.5,689.5 Z"/></g>
<g><path style="opacity:0.004" fill="#3a85c6" d="M 367.5,692.5 C 368.833,693.167 368.833,693.167 367.5,692.5 Z"/></g>
<g><path style="opacity:0.012" fill="#3b85c6" d="M 372.5,692.5 C 371.833,693.167 371.833,693.167 372.5,692.5 Z"/></g>
<g><path style="opacity:0.01" fill="#3b85c5" d="M 371.5,693.5 C 371.5,693.833 371.5,694.167 371.5,694.5C 368.833,694.167 368.833,693.833 371.5,693.5 Z"/></g>
<g><path style="opacity:0.733" fill="#74acdc" d="M 599.5,692.5 C 598.341,694.25 596.674,695.25 594.5,695.5C 595.659,693.75 597.326,692.75 599.5,692.5 Z"/></g>
<g><path style="opacity:0.004" fill="#3983c4" d="M 367.5,694.5 C 368.833,695.167 368.833,695.167 367.5,694.5 Z"/></g>
<g><path style="opacity:0.008" fill="#3985c6" d="M 371.5,694.5 C 372.833,695.167 372.833,695.167 371.5,694.5 Z"/></g>
<g><path style="opacity:0.851" fill="#6ca9de" d="M 529.5,700.5 C 531.698,700.12 533.365,700.787 534.5,702.5C 532.447,702.598 530.78,701.931 529.5,700.5 Z"/></g>
<g><path style="opacity:0.012" fill="#3c88c9" d="M 637.5,701.5 C 638.833,702.167 638.833,702.167 637.5,701.5 Z"/></g>
<g><path style="opacity:0.008" fill="#3a86c6" d="M 383.5,701.5 C 384.525,701.897 384.692,702.563 384,703.5C 383.536,702.906 383.369,702.239 383.5,701.5 Z"/></g>
<g><path style="opacity:0.031" fill="#7db7e5" d="M 441.5,702.5 C 443.027,702.427 444.027,703.094 444.5,704.5C 442.973,704.573 441.973,703.906 441.5,702.5 Z"/></g>
<g><path style="opacity:0.004" fill="#3d87c7" d="M 637.5,702.5 C 636.833,703.167 636.833,703.167 637.5,702.5 Z"/></g>
<g><path style="opacity:0.937" fill="#7bb2e2" d="M 487.5,702.5 C 486.486,703.674 485.153,704.34 483.5,704.5C 484.287,702.896 485.62,702.229 487.5,702.5 Z"/></g>
<g><path style="opacity:1" fill="#67a1d7" d="M 483.5,704.5 C 483.027,705.906 482.027,706.573 480.5,706.5C 480.973,705.094 481.973,704.427 483.5,704.5 Z"/></g>
<g><path style="opacity:0.004" fill="#6ca9dd" d="M 543.5,707.5 C 545.749,708.08 547.415,709.413 548.5,711.5C 546.251,710.92 544.585,709.587 543.5,707.5 Z"/></g>
<g><path style="opacity:0.604" fill="#79b0e0" d="M 573.5,707.5 C 572.341,709.25 570.674,710.25 568.5,710.5C 568.833,709.833 569.167,709.167 569.5,708.5C 570.833,708.167 572.167,707.833 573.5,707.5 Z"/></g>
<g><path style="opacity:0.004" fill="#3883c7" d="M 401.5,709.5 C 400.833,710.167 400.833,710.167 401.5,709.5 Z"/></g>
<g><path style="opacity:0.8" fill="#6daadc" d="M 568.5,710.5 C 567.341,712.25 565.674,713.25 563.5,713.5C 564.659,711.75 566.326,710.75 568.5,710.5 Z"/></g>
<g><path style="opacity:0.984" fill="#5e9cd1" d="M 477.5,708.5 C 474.704,711.797 471.704,714.964 468.5,718C 466.332,718.249 464.665,717.416 463.5,715.5C 465.137,716.218 466.803,716.384 468.5,716C 471.101,712.888 474.101,710.388 477.5,708.5 Z"/></g>
<g><path style="opacity:0.004" fill="#3a85c4" d="M 608.5,718.5 C 609.833,719.167 609.833,719.167 608.5,718.5 Z"/></g>
<g><path style="opacity:0.004" fill="#3a85c8" d="M 425.5,723.5 C 424.833,724.167 424.833,724.167 425.5,723.5 Z"/></g>
<g><path style="opacity:0.004" fill="#3b87c6" d="M 595.5,724.5 C 596.833,725.167 596.833,725.167 595.5,724.5 Z"/></g>
<g><path style="opacity:0.004" fill="#3a87c5" d="M 426.5,725.5 C 427.833,726.167 427.833,726.167 426.5,725.5 Z"/></g>
<g><path style="opacity:0.004" fill="#3882c3" d="M 429.5,725.5 C 429.5,725.833 429.5,726.167 429.5,726.5C 428.83,726.019 428.83,725.685 429.5,725.5 Z"/></g>
<g><path style="opacity:0.004" fill="#3b87c6" d="M 429.5,726.5 C 430.833,727.167 430.833,727.167 429.5,726.5 Z"/></g>
<g><path style="opacity:0.004" fill="#3883c5" d="M 434.5,728.5 C 433.833,729.167 433.833,729.167 434.5,728.5 Z"/></g>
<g><path style="opacity:0.004" fill="#62a3da" d="M 580.5,731.5 C 580.013,732.473 579.513,733.473 579,734.5C 578.014,733.829 576.847,733.829 575.5,734.5C 576.659,732.75 578.326,731.75 580.5,731.5 Z"/></g>
<g><path style="opacity:0.004" fill="#3c86c5" d="M 444.5,734.5 C 443.833,735.167 443.833,735.167 444.5,734.5 Z"/></g>
<g><path style="opacity:0.875" fill="#76b0e2" d="M 567.5,746.5 C 568.655,753.321 568.821,760.321 568,767.5C 567.434,769.723 566.6,771.723 565.5,773.5C 567.12,765.258 567.786,756.924 567.5,748.5C 567.5,747.833 567.5,747.167 567.5,746.5 Z"/></g>
<g><path style="opacity:0.004" fill="#3b84c2" d="M 451.5,762.5 C 452.833,763.167 452.833,763.167 451.5,762.5 Z"/></g>
<g><path style="opacity:0.992" fill="#105ea8" d="M 455.5,767.5 C 454.287,759.841 454.287,752.174 455.5,744.5C 456.41,742.981 457.243,741.315 458,739.5C 457.223,745.103 456.39,750.77 455.5,756.5C 456.624,760.33 456.624,763.996 455.5,767.5 Z"/></g>
<g><path style="opacity:0.988" fill="#226eb7" d="M 567.5,748.5 C 567.786,756.924 567.12,765.258 565.5,773.5C 565.5,774.5 565.5,775.5 565.5,776.5C 565.167,776.5 564.833,776.5 564.5,776.5C 563.685,777.429 562.852,778.429 562,779.5C 561.833,779.167 561.667,778.833 561.5,778.5C 564.442,773.424 565.442,768.091 564.5,762.5C 565.79,757.835 566.79,753.168 567.5,748.5 Z"/></g>
<g><path style="opacity:0.698" fill="#75adde" d="M 455.5,744.5 C 454.287,752.174 454.287,759.841 455.5,767.5C 456.964,772.558 458.63,777.558 460.5,782.5C 453.37,770.564 451.704,757.897 455.5,744.5 Z"/></g>
<g><path style="opacity:0.008" fill="#3179b9" d="M 565.5,776.5 C 566.833,777.167 566.833,777.167 565.5,776.5 Z"/></g>
<g><path style="opacity:0.008" fill="#3c81bd" d="M 566.5,778.5 C 567.833,779.167 567.833,779.167 566.5,778.5 Z"/></g>
<g><path style="opacity:0.008" fill="#3c84c1" d="M 456.5,779.5 C 457.833,780.167 457.833,780.167 456.5,779.5 Z"/></g>
<g><path style="opacity:0.047" fill="#7baddc" d="M 461.5,784.5 C 462.906,784.973 463.573,785.973 463.5,787.5C 462.094,787.027 461.427,786.027 461.5,784.5 Z"/></g>
<g><path style="opacity:0.035" fill="#65a0d5" d="M 474.5,799.5 C 479.873,802.518 485.206,805.518 490.5,808.5C 489.504,808.414 488.671,808.748 488,809.5C 483.203,806.523 478.703,803.19 474.5,799.5 Z"/></g>
<g><path style="opacity:0.008" fill="#3d83c1" d="M 479.5,805.5 C 480.833,806.167 480.833,806.167 479.5,805.5 Z"/></g>
<g><path style="opacity:0.047" fill="#71a8d9" d="M 490.5,808.5 C 493.152,808.41 495.485,809.076 497.5,810.5C 494.848,810.59 492.515,809.924 490.5,808.5 Z"/></g>
<g><path style="opacity:0.004" fill="#3b7eb9" d="M 490.5,811.5 C 490.897,810.475 491.563,810.308 492.5,811C 491.906,811.464 491.239,811.631 490.5,811.5 Z"/></g>
<g><path style="opacity:1" fill="#115da5" d="M 526.5,809.5 C 519.935,811.047 513.268,811.714 506.5,811.5C 504.369,810.686 502.036,810.186 499.5,810C 504.362,809.308 509.195,809.475 514,810.5C 517.511,809.887 521.011,809.22 524.5,808.5C 525.416,808.543 526.083,808.876 526.5,809.5 Z"/></g>
<g><path style="opacity:0.288" fill="#7ab3e2" d="M 533.5,807.5 C 523.922,812.222 513.922,813.555 503.5,811.5C 504.5,811.5 505.5,811.5 506.5,811.5C 513.268,811.714 519.935,811.047 526.5,809.5C 528.701,808.434 531.035,807.767 533.5,807.5 Z"/></g>
<g><path style="opacity:0.004" fill="#3d82be" d="M 526.5,811.5 C 527.833,812.167 527.833,812.167 526.5,811.5 Z"/></g>
<g><path style="opacity:0.004" fill="#3d81bd" d="M 522.5,812.5 C 523.833,813.167 523.833,813.167 522.5,812.5 Z"/></g>
<g><path style="opacity:0.004" fill="#3c82bc" d="M 508.5,813.5 C 509.833,814.167 509.833,814.167 508.5,813.5 Z"/></g>
<g><path style="opacity:0.016" fill="#3a81bb" d="M 525.5,813.5 C 526.833,814.167 526.833,814.167 525.5,813.5 Z"/></g>
</svg>
